<mxfile host="Electron" agent="Mozilla/5.0 (Windows NT 10.0; Win64; x64) AppleWebKit/537.36 (KHTML, like Gecko) draw.io/25.0.2 Chrome/128.0.6613.186 Electron/32.2.5 Safari/537.36" version="25.0.2">
  <diagram id="C5RBs43oDa-KdzZeNtuy" name="Page-1">
    <mxGraphModel dx="1444" dy="1329" grid="0" gridSize="10" guides="1" tooltips="1" connect="1" arrows="1" fold="1" page="0" pageScale="1" pageWidth="827" pageHeight="1169" math="0" shadow="0">
      <root>
        <mxCell id="WIyWlLk6GJQsqaUBKTNV-0" />
        <mxCell id="WIyWlLk6GJQsqaUBKTNV-1" parent="WIyWlLk6GJQsqaUBKTNV-0" />
        <mxCell id="GukS_4XcCskzM8oXKrFU-43" value="" style="rounded=0;whiteSpace=wrap;html=1;dashed=1;fillColor=#9AC7BF;" parent="WIyWlLk6GJQsqaUBKTNV-1" vertex="1">
          <mxGeometry x="75" y="-52" width="664" height="1317" as="geometry" />
        </mxCell>
        <mxCell id="y7RNgOp4na0GJBIn22-b-2" value="" style="rounded=0;whiteSpace=wrap;html=1;fillColor=#FFF4C3;" vertex="1" parent="WIyWlLk6GJQsqaUBKTNV-1">
          <mxGeometry x="86" y="281" width="640" height="974" as="geometry" />
        </mxCell>
        <mxCell id="GukS_4XcCskzM8oXKrFU-1" value="&lt;b&gt;&lt;font color=&quot;#333333&quot; style=&quot;font-size: 15px;&quot;&gt;Flask App Init&lt;/font&gt;&lt;/b&gt;" style="rounded=0;whiteSpace=wrap;html=1;strokeColor=#000000;fillColor=#66FFFF;" parent="WIyWlLk6GJQsqaUBKTNV-1" vertex="1">
          <mxGeometry x="146" y="-27" width="198" height="60" as="geometry" />
        </mxCell>
        <mxCell id="GukS_4XcCskzM8oXKrFU-4" style="edgeStyle=orthogonalEdgeStyle;rounded=0;orthogonalLoop=1;jettySize=auto;html=1;entryX=0.5;entryY=0;entryDx=0;entryDy=0;strokeColor=#333333;strokeWidth=2;align=center;verticalAlign=middle;fontFamily=Helvetica;fontSize=11;fontColor=default;labelBackgroundColor=default;endArrow=classic;" parent="WIyWlLk6GJQsqaUBKTNV-1" source="GukS_4XcCskzM8oXKrFU-2" target="GukS_4XcCskzM8oXKrFU-3" edge="1">
          <mxGeometry relative="1" as="geometry" />
        </mxCell>
        <mxCell id="GukS_4XcCskzM8oXKrFU-5" value="YES" style="edgeLabel;html=1;align=center;verticalAlign=middle;resizable=0;points=[];rounded=0;strokeColor=#333333;strokeWidth=2;fontFamily=Helvetica;fontSize=11;fontColor=default;labelBackgroundColor=default;" parent="GukS_4XcCskzM8oXKrFU-4" vertex="1" connectable="0">
          <mxGeometry x="-0.2933" y="-3" relative="1" as="geometry">
            <mxPoint x="3" as="offset" />
          </mxGeometry>
        </mxCell>
        <mxCell id="GukS_4XcCskzM8oXKrFU-2" value="&lt;b&gt;&lt;font style=&quot;font-size: 14px;&quot; color=&quot;#000000&quot;&gt;Request&amp;nbsp;&lt;/font&gt;&lt;/b&gt;&lt;div&gt;&lt;b&gt;&lt;font style=&quot;font-size: 14px;&quot; color=&quot;#000000&quot;&gt;received&lt;/font&gt;&lt;/b&gt;&lt;div&gt;&lt;b&gt;&lt;font style=&quot;font-size: 14px;&quot; color=&quot;#000000&quot;&gt;&amp;nbsp;on endpoint&amp;nbsp;&lt;/font&gt;&lt;/b&gt;&lt;/div&gt;&lt;div&gt;&lt;b&gt;&lt;font style=&quot;font-size: 14px;&quot; color=&quot;#000000&quot;&gt;&quot;/infer&quot;&lt;/font&gt;&lt;/b&gt;&lt;/div&gt;&lt;/div&gt;" style="rhombus;whiteSpace=wrap;html=1;rounded=0;strokeColor=#000000;align=center;verticalAlign=middle;fontFamily=Helvetica;fontSize=12;fontColor=default;fillColor=#66FFFF;" parent="WIyWlLk6GJQsqaUBKTNV-1" vertex="1">
          <mxGeometry x="150" y="110" width="190" height="140" as="geometry" />
        </mxCell>
        <mxCell id="GukS_4XcCskzM8oXKrFU-7" value="" style="edgeStyle=orthogonalEdgeStyle;rounded=0;orthogonalLoop=1;jettySize=auto;html=1;strokeColor=#333333;strokeWidth=2;align=center;verticalAlign=middle;fontFamily=Helvetica;fontSize=11;fontColor=default;labelBackgroundColor=default;endArrow=classic;" parent="WIyWlLk6GJQsqaUBKTNV-1" source="GukS_4XcCskzM8oXKrFU-3" target="GukS_4XcCskzM8oXKrFU-6" edge="1">
          <mxGeometry relative="1" as="geometry" />
        </mxCell>
        <mxCell id="GukS_4XcCskzM8oXKrFU-13" value="Incorrect" style="edgeLabel;html=1;align=center;verticalAlign=middle;resizable=0;points=[];rounded=0;strokeColor=#333333;strokeWidth=2;fontFamily=Helvetica;fontSize=11;fontColor=default;labelBackgroundColor=default;" parent="GukS_4XcCskzM8oXKrFU-7" vertex="1" connectable="0">
          <mxGeometry x="-0.4841" y="1" relative="1" as="geometry">
            <mxPoint x="-26" y="1" as="offset" />
          </mxGeometry>
        </mxCell>
        <mxCell id="GukS_4XcCskzM8oXKrFU-12" value="" style="edgeStyle=orthogonalEdgeStyle;rounded=0;orthogonalLoop=1;jettySize=auto;html=1;strokeColor=#333333;strokeWidth=2;align=center;verticalAlign=middle;fontFamily=Helvetica;fontSize=11;fontColor=default;labelBackgroundColor=default;endArrow=classic;" parent="WIyWlLk6GJQsqaUBKTNV-1" source="GukS_4XcCskzM8oXKrFU-3" target="GukS_4XcCskzM8oXKrFU-11" edge="1">
          <mxGeometry relative="1" as="geometry" />
        </mxCell>
        <mxCell id="GukS_4XcCskzM8oXKrFU-14" value="correct" style="edgeLabel;html=1;align=center;verticalAlign=middle;resizable=0;points=[];rounded=0;strokeColor=#333333;strokeWidth=2;fontFamily=Helvetica;fontSize=11;fontColor=default;labelBackgroundColor=default;" parent="GukS_4XcCskzM8oXKrFU-12" vertex="1" connectable="0">
          <mxGeometry x="-0.1698" y="-2" relative="1" as="geometry">
            <mxPoint x="2" y="-1" as="offset" />
          </mxGeometry>
        </mxCell>
        <mxCell id="GukS_4XcCskzM8oXKrFU-3" value="&lt;b&gt;&lt;font color=&quot;#333333&quot;&gt;Validate request&lt;/font&gt;&lt;/b&gt;&lt;div&gt;&lt;b&gt;&lt;font color=&quot;#333333&quot;&gt;&amp;nbsp;format&lt;/font&gt;&lt;/b&gt;&lt;/div&gt;" style="rhombus;whiteSpace=wrap;html=1;strokeColor=#333333;align=center;verticalAlign=middle;fontFamily=Helvetica;fontSize=12;fontColor=default;fillColor=#FFCCFF;" parent="WIyWlLk6GJQsqaUBKTNV-1" vertex="1">
          <mxGeometry x="166.5" y="299" width="157" height="77" as="geometry" />
        </mxCell>
        <mxCell id="GukS_4XcCskzM8oXKrFU-6" value="&lt;b&gt;&lt;font style=&quot;font-size: 15px;&quot; color=&quot;#000000&quot;&gt;return error&amp;nbsp;&lt;/font&gt;&lt;/b&gt;&lt;div&gt;&lt;b&gt;&lt;font style=&quot;font-size: 15px;&quot; color=&quot;#000000&quot;&gt;400&lt;/font&gt;&lt;/b&gt;&lt;/div&gt;" style="whiteSpace=wrap;html=1;fillColor=#FFCCFF;strokeColor=#333333;" parent="WIyWlLk6GJQsqaUBKTNV-1" vertex="1">
          <mxGeometry x="538" y="307.5" width="120" height="60" as="geometry" />
        </mxCell>
        <mxCell id="GukS_4XcCskzM8oXKrFU-16" value="" style="edgeStyle=orthogonalEdgeStyle;rounded=0;orthogonalLoop=1;jettySize=auto;html=1;strokeColor=#333333;strokeWidth=2;" parent="WIyWlLk6GJQsqaUBKTNV-1" source="GukS_4XcCskzM8oXKrFU-11" target="GukS_4XcCskzM8oXKrFU-17" edge="1">
          <mxGeometry relative="1" as="geometry">
            <mxPoint x="245.5" y="543" as="targetPoint" />
          </mxGeometry>
        </mxCell>
        <mxCell id="GukS_4XcCskzM8oXKrFU-11" value="&lt;b&gt;&lt;font color=&quot;#333333&quot;&gt;Parse Optional parameters (confidence, overlap)&lt;/font&gt;&lt;/b&gt;" style="whiteSpace=wrap;html=1;strokeColor=#333333;align=center;verticalAlign=middle;fontFamily=Helvetica;fontSize=12;fontColor=default;fillColor=#FFCCFF;" parent="WIyWlLk6GJQsqaUBKTNV-1" vertex="1">
          <mxGeometry x="180" y="431" width="131" height="57" as="geometry" />
        </mxCell>
        <mxCell id="GukS_4XcCskzM8oXKrFU-19" value="" style="edgeStyle=orthogonalEdgeStyle;rounded=0;orthogonalLoop=1;jettySize=auto;html=1;strokeColor=#333333;strokeWidth=2;" parent="WIyWlLk6GJQsqaUBKTNV-1" source="GukS_4XcCskzM8oXKrFU-17" target="GukS_4XcCskzM8oXKrFU-18" edge="1">
          <mxGeometry relative="1" as="geometry" />
        </mxCell>
        <mxCell id="GukS_4XcCskzM8oXKrFU-23" value="YES" style="edgeLabel;html=1;align=center;verticalAlign=middle;resizable=0;points=[];" parent="GukS_4XcCskzM8oXKrFU-19" vertex="1" connectable="0">
          <mxGeometry x="-0.3355" y="2" relative="1" as="geometry">
            <mxPoint as="offset" />
          </mxGeometry>
        </mxCell>
        <mxCell id="GukS_4XcCskzM8oXKrFU-21" value="" style="edgeStyle=orthogonalEdgeStyle;rounded=0;orthogonalLoop=1;jettySize=auto;html=1;strokeColor=#333333;strokeWidth=2;" parent="WIyWlLk6GJQsqaUBKTNV-1" source="GukS_4XcCskzM8oXKrFU-45" target="GukS_4XcCskzM8oXKrFU-20" edge="1">
          <mxGeometry relative="1" as="geometry">
            <Array as="points">
              <mxPoint x="436" y="654" />
              <mxPoint x="436" y="654" />
            </Array>
          </mxGeometry>
        </mxCell>
        <mxCell id="GukS_4XcCskzM8oXKrFU-48" value="YES" style="edgeLabel;html=1;align=center;verticalAlign=middle;resizable=0;points=[];" parent="GukS_4XcCskzM8oXKrFU-21" vertex="1" connectable="0">
          <mxGeometry x="-0.5174" relative="1" as="geometry">
            <mxPoint y="-20" as="offset" />
          </mxGeometry>
        </mxCell>
        <mxCell id="GukS_4XcCskzM8oXKrFU-17" value="&lt;b&gt;&lt;font color=&quot;#333333&quot; style=&quot;font-size: 13px;&quot;&gt;File type:&lt;br&gt;.h264&amp;nbsp;&lt;/font&gt;&lt;/b&gt;" style="rhombus;whiteSpace=wrap;html=1;strokeColor=#333333;align=center;verticalAlign=middle;fontFamily=Helvetica;fontSize=12;fontColor=default;fillColor=#FFCCFF;" parent="WIyWlLk6GJQsqaUBKTNV-1" vertex="1">
          <mxGeometry x="189.5" y="525" width="112" height="89" as="geometry" />
        </mxCell>
        <mxCell id="GukS_4XcCskzM8oXKrFU-25" value="" style="edgeStyle=orthogonalEdgeStyle;rounded=0;orthogonalLoop=1;jettySize=auto;html=1;strokeColor=#333333;strokeWidth=2;" parent="WIyWlLk6GJQsqaUBKTNV-1" source="GukS_4XcCskzM8oXKrFU-18" target="GukS_4XcCskzM8oXKrFU-24" edge="1">
          <mxGeometry relative="1" as="geometry" />
        </mxCell>
        <mxCell id="GukS_4XcCskzM8oXKrFU-18" value="&lt;b&gt;&lt;font color=&quot;#333333&quot;&gt;Save data on temporary directory&lt;/font&gt;&lt;/b&gt;" style="whiteSpace=wrap;html=1;strokeColor=#333333;align=center;verticalAlign=middle;fontFamily=Helvetica;fontSize=12;fontColor=default;fillColor=#FFCCFF;" parent="WIyWlLk6GJQsqaUBKTNV-1" vertex="1">
          <mxGeometry x="185.5" y="658" width="120.5" height="49" as="geometry" />
        </mxCell>
        <mxCell id="GukS_4XcCskzM8oXKrFU-31" value="" style="edgeStyle=orthogonalEdgeStyle;rounded=0;orthogonalLoop=1;jettySize=auto;html=1;strokeColor=#333333;strokeWidth=2;align=center;verticalAlign=middle;fontFamily=Helvetica;fontSize=11;fontColor=default;labelBackgroundColor=default;endArrow=classic;" parent="WIyWlLk6GJQsqaUBKTNV-1" source="GukS_4XcCskzM8oXKrFU-20" target="GukS_4XcCskzM8oXKrFU-30" edge="1">
          <mxGeometry relative="1" as="geometry" />
        </mxCell>
        <mxCell id="GukS_4XcCskzM8oXKrFU-20" value="&lt;b&gt;&lt;font color=&quot;#333333&quot; style=&quot;font-size: 13px;&quot;&gt;Process_image&lt;/font&gt;&lt;/b&gt;" style="whiteSpace=wrap;html=1;strokeColor=#333333;align=center;verticalAlign=middle;fontFamily=Helvetica;fontSize=12;fontColor=default;fillColor=#FFCCFF;" parent="WIyWlLk6GJQsqaUBKTNV-1" vertex="1">
          <mxGeometry x="381" y="763" width="109" height="33.5" as="geometry" />
        </mxCell>
        <mxCell id="GukS_4XcCskzM8oXKrFU-27" value="" style="edgeStyle=orthogonalEdgeStyle;rounded=0;orthogonalLoop=1;jettySize=auto;html=1;strokeWidth=2;strokeColor=#333333;" parent="WIyWlLk6GJQsqaUBKTNV-1" source="GukS_4XcCskzM8oXKrFU-24" target="GukS_4XcCskzM8oXKrFU-26" edge="1">
          <mxGeometry relative="1" as="geometry" />
        </mxCell>
        <mxCell id="GukS_4XcCskzM8oXKrFU-24" value="&lt;b&gt;&lt;font color=&quot;#333333&quot;&gt;Extract I-frames from .h264 data using ffmpeg&lt;/font&gt;&lt;/b&gt;" style="whiteSpace=wrap;html=1;strokeColor=#333333;align=center;verticalAlign=middle;fontFamily=Helvetica;fontSize=12;fontColor=default;fillColor=#FFCCFF;" parent="WIyWlLk6GJQsqaUBKTNV-1" vertex="1">
          <mxGeometry x="185.5" y="734" width="120.5" height="55" as="geometry" />
        </mxCell>
        <mxCell id="GukS_4XcCskzM8oXKrFU-29" value="" style="edgeStyle=orthogonalEdgeStyle;rounded=0;orthogonalLoop=1;jettySize=auto;html=1;strokeWidth=2;strokeColor=#333333;" parent="WIyWlLk6GJQsqaUBKTNV-1" source="GukS_4XcCskzM8oXKrFU-26" target="GukS_4XcCskzM8oXKrFU-28" edge="1">
          <mxGeometry relative="1" as="geometry" />
        </mxCell>
        <mxCell id="GukS_4XcCskzM8oXKrFU-26" value="&lt;b&gt;&lt;font color=&quot;#333333&quot;&gt;Extract I-frames from .h264 data using ffmpeg&lt;/font&gt;&lt;/b&gt;" style="whiteSpace=wrap;html=1;strokeColor=#333333;align=center;verticalAlign=middle;fontFamily=Helvetica;fontSize=12;fontColor=default;fillColor=#FFCCFF;" parent="WIyWlLk6GJQsqaUBKTNV-1" vertex="1">
          <mxGeometry x="185.5" y="844" width="120.5" height="55" as="geometry" />
        </mxCell>
        <mxCell id="GukS_4XcCskzM8oXKrFU-53" style="edgeStyle=orthogonalEdgeStyle;rounded=0;orthogonalLoop=1;jettySize=auto;html=1;entryX=0.5;entryY=0;entryDx=0;entryDy=0;strokeColor=#333333;strokeWidth=2;align=center;verticalAlign=middle;fontFamily=Helvetica;fontSize=11;fontColor=default;labelBackgroundColor=default;endArrow=classic;" parent="WIyWlLk6GJQsqaUBKTNV-1" source="GukS_4XcCskzM8oXKrFU-28" target="GukS_4XcCskzM8oXKrFU-52" edge="1">
          <mxGeometry relative="1" as="geometry">
            <Array as="points">
              <mxPoint x="246" y="1024" />
              <mxPoint x="342" y="1024" />
              <mxPoint x="342" y="1059" />
            </Array>
          </mxGeometry>
        </mxCell>
        <mxCell id="GukS_4XcCskzM8oXKrFU-28" value="&lt;b&gt;&lt;font color=&quot;#333333&quot;&gt;get inference result for each frame using robofow&lt;/font&gt;&lt;/b&gt;" style="whiteSpace=wrap;html=1;strokeColor=#333333;align=center;verticalAlign=middle;fontFamily=Helvetica;fontSize=12;fontColor=default;fillColor=#FFCCFF;" parent="WIyWlLk6GJQsqaUBKTNV-1" vertex="1">
          <mxGeometry x="185.75" y="940" width="120" height="60" as="geometry" />
        </mxCell>
        <mxCell id="GukS_4XcCskzM8oXKrFU-34" value="" style="edgeStyle=orthogonalEdgeStyle;rounded=0;orthogonalLoop=1;jettySize=auto;html=1;strokeColor=#333333;strokeWidth=2;align=center;verticalAlign=middle;fontFamily=Helvetica;fontSize=11;fontColor=default;labelBackgroundColor=default;endArrow=classic;" parent="WIyWlLk6GJQsqaUBKTNV-1" source="GukS_4XcCskzM8oXKrFU-30" target="GukS_4XcCskzM8oXKrFU-33" edge="1">
          <mxGeometry relative="1" as="geometry" />
        </mxCell>
        <mxCell id="GukS_4XcCskzM8oXKrFU-30" value="&lt;b&gt;&lt;font color=&quot;#333333&quot;&gt;Save image as temporary file&lt;/font&gt;&lt;/b&gt;" style="whiteSpace=wrap;html=1;strokeColor=#333333;align=center;verticalAlign=middle;fontFamily=Helvetica;fontSize=12;fontColor=default;fillColor=#FFCCFF;" parent="WIyWlLk6GJQsqaUBKTNV-1" vertex="1">
          <mxGeometry x="379" y="864.25" width="113" height="38" as="geometry" />
        </mxCell>
        <mxCell id="GukS_4XcCskzM8oXKrFU-54" style="edgeStyle=orthogonalEdgeStyle;rounded=0;orthogonalLoop=1;jettySize=auto;html=1;entryX=0.5;entryY=0;entryDx=0;entryDy=0;endArrow=classic;endFill=0;strokeColor=#333333;strokeWidth=2;align=center;verticalAlign=middle;fontFamily=Helvetica;fontSize=11;fontColor=default;labelBackgroundColor=default;" parent="WIyWlLk6GJQsqaUBKTNV-1" source="GukS_4XcCskzM8oXKrFU-33" target="GukS_4XcCskzM8oXKrFU-52" edge="1">
          <mxGeometry relative="1" as="geometry">
            <Array as="points">
              <mxPoint x="436" y="1024" />
              <mxPoint x="342" y="1024" />
            </Array>
          </mxGeometry>
        </mxCell>
        <mxCell id="GukS_4XcCskzM8oXKrFU-33" value="&lt;b&gt;&lt;font color=&quot;#333333&quot;&gt;get inference result&amp;nbsp; using robofow&lt;/font&gt;&lt;/b&gt;" style="whiteSpace=wrap;html=1;strokeColor=#333333;align=center;verticalAlign=middle;fontFamily=Helvetica;fontSize=12;fontColor=default;fillColor=#FFCCFF;" parent="WIyWlLk6GJQsqaUBKTNV-1" vertex="1">
          <mxGeometry x="377" y="952.25" width="117" height="47.75" as="geometry" />
        </mxCell>
        <mxCell id="GukS_4XcCskzM8oXKrFU-41" style="edgeStyle=orthogonalEdgeStyle;rounded=0;orthogonalLoop=1;jettySize=auto;html=1;endArrow=classic;endFill=0;exitX=1;exitY=0.5;exitDx=0;exitDy=0;strokeColor=#333333;strokeWidth=2;align=center;verticalAlign=middle;fontFamily=Helvetica;fontSize=11;fontColor=default;labelBackgroundColor=default;entryX=0.495;entryY=0.003;entryDx=0;entryDy=0;entryPerimeter=0;" parent="WIyWlLk6GJQsqaUBKTNV-1" source="GukS_4XcCskzM8oXKrFU-35" edge="1" target="GukS_4XcCskzM8oXKrFU-2">
          <mxGeometry relative="1" as="geometry">
            <mxPoint x="424.04" y="1086" as="sourcePoint" />
            <mxPoint x="244.04" y="108" as="targetPoint" />
            <Array as="points">
              <mxPoint x="401" y="1214" />
              <mxPoint x="689" y="1214" />
              <mxPoint x="689" y="61" />
              <mxPoint x="244" y="61" />
            </Array>
          </mxGeometry>
        </mxCell>
        <mxCell id="GukS_4XcCskzM8oXKrFU-35" value="&lt;b&gt;&lt;font style=&quot;font-size: 14px;&quot; color=&quot;#333333&quot;&gt;return result response&lt;/font&gt;&lt;/b&gt;" style="whiteSpace=wrap;html=1;strokeColor=#333333;align=center;verticalAlign=middle;fontFamily=Helvetica;fontSize=12;fontColor=default;fillColor=#FFCCFF;" parent="WIyWlLk6GJQsqaUBKTNV-1" vertex="1">
          <mxGeometry x="281.5" y="1182" width="120" height="60" as="geometry" />
        </mxCell>
        <mxCell id="GukS_4XcCskzM8oXKrFU-44" value="&lt;font style=&quot;font-size: 15px;&quot; color=&quot;#000000&quot;&gt;&lt;b&gt;Upload_and_infer&lt;/b&gt;&lt;/font&gt;" style="text;html=1;align=center;verticalAlign=middle;whiteSpace=wrap;rounded=0;strokeWidth=3;" parent="WIyWlLk6GJQsqaUBKTNV-1" vertex="1">
          <mxGeometry x="329" y="243" width="60" height="30" as="geometry" />
        </mxCell>
        <mxCell id="GukS_4XcCskzM8oXKrFU-46" value="" style="edgeStyle=orthogonalEdgeStyle;rounded=0;orthogonalLoop=1;jettySize=auto;html=1;strokeColor=#333333;strokeWidth=2;align=center;verticalAlign=middle;fontFamily=Helvetica;fontSize=11;fontColor=default;labelBackgroundColor=default;endArrow=classic;" parent="WIyWlLk6GJQsqaUBKTNV-1" source="GukS_4XcCskzM8oXKrFU-17" target="GukS_4XcCskzM8oXKrFU-45" edge="1">
          <mxGeometry relative="1" as="geometry">
            <mxPoint x="301" y="569" as="sourcePoint" />
            <mxPoint x="436" y="763" as="targetPoint" />
          </mxGeometry>
        </mxCell>
        <mxCell id="GukS_4XcCskzM8oXKrFU-47" value="NO" style="edgeLabel;html=1;align=center;verticalAlign=middle;resizable=0;points=[];rounded=0;strokeColor=#333333;strokeWidth=2;fontFamily=Helvetica;fontSize=11;fontColor=default;labelBackgroundColor=default;" parent="GukS_4XcCskzM8oXKrFU-46" vertex="1" connectable="0">
          <mxGeometry x="-0.3155" relative="1" as="geometry">
            <mxPoint x="7" as="offset" />
          </mxGeometry>
        </mxCell>
        <mxCell id="GukS_4XcCskzM8oXKrFU-50" value="" style="edgeStyle=orthogonalEdgeStyle;rounded=0;orthogonalLoop=1;jettySize=auto;html=1;entryX=0;entryY=0.5;entryDx=0;entryDy=0;strokeColor=#333333;strokeWidth=2;align=center;verticalAlign=middle;fontFamily=Helvetica;fontSize=11;fontColor=default;labelBackgroundColor=default;endArrow=classic;" parent="WIyWlLk6GJQsqaUBKTNV-1" source="GukS_4XcCskzM8oXKrFU-45" target="GukS_4XcCskzM8oXKrFU-6" edge="1">
          <mxGeometry relative="1" as="geometry">
            <mxPoint x="559" y="569.4782608695652" as="targetPoint" />
            <Array as="points">
              <mxPoint x="523" y="570" />
              <mxPoint x="523" y="337" />
            </Array>
          </mxGeometry>
        </mxCell>
        <mxCell id="GukS_4XcCskzM8oXKrFU-51" value="NO" style="edgeLabel;html=1;align=center;verticalAlign=middle;resizable=0;points=[];rounded=0;strokeColor=#333333;strokeWidth=2;fontFamily=Helvetica;fontSize=11;fontColor=default;labelBackgroundColor=default;" parent="GukS_4XcCskzM8oXKrFU-50" vertex="1" connectable="0">
          <mxGeometry x="-0.8848" y="-1" relative="1" as="geometry">
            <mxPoint as="offset" />
          </mxGeometry>
        </mxCell>
        <mxCell id="GukS_4XcCskzM8oXKrFU-45" value="&lt;b&gt;&lt;font color=&quot;#333333&quot; style=&quot;font-size: 13px;&quot;&gt;File type:&lt;/font&gt;&lt;/b&gt;&lt;div&gt;&lt;b&gt;&lt;font color=&quot;#333333&quot; style=&quot;font-size: 13px;&quot;&gt;.jpg, .png&lt;/font&gt;&lt;/b&gt;&lt;/div&gt;" style="rhombus;whiteSpace=wrap;html=1;strokeColor=#333333;align=center;verticalAlign=middle;fontFamily=Helvetica;fontSize=12;fontColor=default;fillColor=#FFCCFF;" parent="WIyWlLk6GJQsqaUBKTNV-1" vertex="1">
          <mxGeometry x="383.75" y="519.75" width="103.5" height="99.5" as="geometry" />
        </mxCell>
        <mxCell id="GukS_4XcCskzM8oXKrFU-55" style="edgeStyle=orthogonalEdgeStyle;rounded=0;orthogonalLoop=1;jettySize=auto;html=1;entryX=0.5;entryY=0;entryDx=0;entryDy=0;strokeColor=#333333;strokeWidth=2;align=center;verticalAlign=middle;fontFamily=Helvetica;fontSize=11;fontColor=default;labelBackgroundColor=default;endArrow=classic;" parent="WIyWlLk6GJQsqaUBKTNV-1" source="GukS_4XcCskzM8oXKrFU-52" target="GukS_4XcCskzM8oXKrFU-35" edge="1">
          <mxGeometry relative="1" as="geometry" />
        </mxCell>
        <mxCell id="GukS_4XcCskzM8oXKrFU-56" value="YES" style="edgeLabel;html=1;align=center;verticalAlign=middle;resizable=0;points=[];rounded=0;strokeColor=#333333;strokeWidth=2;fontFamily=Helvetica;fontSize=11;fontColor=default;labelBackgroundColor=default;" parent="GukS_4XcCskzM8oXKrFU-55" vertex="1" connectable="0">
          <mxGeometry x="-0.4299" relative="1" as="geometry">
            <mxPoint as="offset" />
          </mxGeometry>
        </mxCell>
        <mxCell id="GukS_4XcCskzM8oXKrFU-58" value="" style="edgeStyle=orthogonalEdgeStyle;rounded=0;orthogonalLoop=1;jettySize=auto;html=1;strokeColor=#333333;strokeWidth=2;align=center;verticalAlign=middle;fontFamily=Helvetica;fontSize=11;fontColor=default;labelBackgroundColor=default;endArrow=classic;" parent="WIyWlLk6GJQsqaUBKTNV-1" source="GukS_4XcCskzM8oXKrFU-52" target="GukS_4XcCskzM8oXKrFU-57" edge="1">
          <mxGeometry relative="1" as="geometry" />
        </mxCell>
        <mxCell id="GukS_4XcCskzM8oXKrFU-59" value="NO" style="edgeLabel;html=1;align=center;verticalAlign=middle;resizable=0;points=[];rounded=0;strokeColor=#333333;strokeWidth=2;fontFamily=Helvetica;fontSize=11;fontColor=default;labelBackgroundColor=default;" parent="GukS_4XcCskzM8oXKrFU-58" vertex="1" connectable="0">
          <mxGeometry x="-0.097" relative="1" as="geometry">
            <mxPoint as="offset" />
          </mxGeometry>
        </mxCell>
        <mxCell id="GukS_4XcCskzM8oXKrFU-52" value="&lt;b&gt;&lt;font color=&quot;#333333&quot;&gt;valid result&lt;/font&gt;&lt;/b&gt;" style="rhombus;whiteSpace=wrap;html=1;strokeColor=#333333;align=center;verticalAlign=middle;fontFamily=Helvetica;fontSize=12;fontColor=default;fillColor=#FFCCFF;" parent="WIyWlLk6GJQsqaUBKTNV-1" vertex="1">
          <mxGeometry x="301.5" y="1059" width="80" height="80" as="geometry" />
        </mxCell>
        <mxCell id="GukS_4XcCskzM8oXKrFU-57" value="&lt;b&gt;&lt;font color=&quot;#333333&quot;&gt;return error 500&lt;/font&gt;&lt;/b&gt;" style="whiteSpace=wrap;html=1;strokeColor=#333333;align=center;verticalAlign=middle;fontFamily=Helvetica;fontSize=12;fontColor=default;fillColor=#FFCCFF;" parent="WIyWlLk6GJQsqaUBKTNV-1" vertex="1">
          <mxGeometry x="544.25" y="1084" width="107.5" height="30" as="geometry" />
        </mxCell>
        <mxCell id="y7RNgOp4na0GJBIn22-b-5" value="" style="edgeStyle=orthogonalEdgeStyle;rounded=0;orthogonalLoop=1;jettySize=auto;html=1;strokeColor=#333333;strokeWidth=2;" edge="1" parent="WIyWlLk6GJQsqaUBKTNV-1">
          <mxGeometry relative="1" as="geometry">
            <mxPoint x="244" y="110" as="targetPoint" />
            <mxPoint x="242.8" y="33" as="sourcePoint" />
            <Array as="points">
              <mxPoint x="244" y="33" />
            </Array>
          </mxGeometry>
        </mxCell>
      </root>
    </mxGraphModel>
  </diagram>
</mxfile>
